PathFileType	3	(X/Y/Z)	D:\minhoCalibration\240510\subject1_KPNP\preferred\preferred08.trc
DataRate	CameraRate	NumFrames	NumMarkers	Units	OrigDataRate	OrigDataStartFrame	OrigNumFrames
200.0	200.0	12	10	mm	200.0	327	196	
Frame#	Time	Left_Ankle_Outer1			Left_Ankle_Inner1			Left_Knee_Outer1			Left_Knee_Inner1			Left_Wrist1			Right_Wrist1			Right_Knee_Inner1			Right_Knee_Outer1			Right_Ankle_Inner1			Right_Ankle_Outer1			
		X1	Y1	Z1	X2	Y2	Z2	X3	Y3	Z3	X4	Y4	Z4	X5	Y5	Z5	X6	Y6	Z6	X7	Y7	Z7	X8	Y8	Z8	X9	Y9	Z9	X10	Y10	Z10	
327	1.625	-521.36005	136.59599	-552.80109	-564.60602	146.82114	-516.80786	-362.69986	543.39093	-407.88254	-465.86685	521.72919	-369.50085	-370.80383	1004.0837	-555.16925	-696.04059	1080.996	-416.43616	-470.85403	772.6499	-99.855225	-580.44031	802.74017	-76.93972	-620.71429	349.83359	-50.901546	-706.11115	363.05441	15.396284
328	1.63	-522.14307	135.39571	-553.32068	-564.9079	145.40891	-516.71216	-362.379	541.45111	-406.74777	-465.61563	519.86731	-368.35416	-369.92844	1001.8908	-553.02008	-697.07123	1076.0891	-417.97925	-478.1142	760.99396	-103.35495	-588.27917	790.33826	-82.091919	-626.81464	337.23187	-68.46785	-714.40161	348.99887	-2.3405573
329	1.635	-522.6864	134.07986	-553.83075	-565.8476	143.9604	-517.2005	-362.26547	539.38263	-405.45096	-465.05377	518.04224	-366.86639	-369.30847	999.60883	-550.92999	-697.78143	1071.2283	-419.87613	-485.41116	749.30914	-107.27872	-596.09521	777.91217	-87.730957	-634.29834	324.5433	-83.85466	-722.15118	335.2829	-19.896711
330	1.64	-523.26202	132.75467	-554.42017	-566.4809	142.57852	-518.05109	-362.30835	537.21466	-404.07156	-465.15665	515.95203	-366.0975	-368.8331	997.29956	-548.97528	-699.16864	1066.6755	-421.04755	-492.73471	737.67914	-111.65097	-603.84155	765.73083	-93.836678	-641.81573	312.08987	-99.021324	-729.69507	321.95435	-37.57172
331	1.645	-523.64819	131.1877	-555.00043	-566.67365	140.99715	-518.40295	-362.50174	535.22949	-402.59177	-465.32416	513.99707	-364.81619	-368.52948	994.86145	-547.21381	-699.93475	1062.2223	-422.83057	-499.97458	726.09302	-116.48432	-611.30377	753.7467	-100.49538	-647.61731	301.2366	-115.02116	-736.93774	309.12189	-54.931412
332	1.65	-523.84149	129.55849	-555.65253	-567.8623	140.01169	-520.32489	-362.9744	533.10071	-401.09586	-465.48016	512.14478	-363.69083	-368.17676	992.44385	-545.70087	-700.70935	1058.3148	-424.47528	-507.08453	714.48737	-122.17307	-618.46912	741.98529	-107.81773	-652.12372	290.32635	-132.75151	-744.42596	296.58807	-71.891098
333	1.655	-523.92871	127.79583	-556.29565	-568.33319	138.36334	-521.29419	-363.53287	530.84833	-399.66156	-466.14316	510.12366	-362.70224	-367.83572	990.07324	-544.26813	-701.45966	1054.1418	-426.61963	-514.10748	702.84808	-128.68149	-625.30994	730.61682	-115.6073	-658.99841	279.30392	-147.44981	-751.58582	284.58197	-88.413345
334	1.66	-523.90875	125.97707	-557.03125	-568.79016	136.73935	-522.47699	-364.4227	528.54254	-398.12439	-466.91013	507.85114	-361.62485	-367.68347	987.64032	-542.87482	-702.77148	1050.3337	-428.16455	-520.85687	691.20892	-136.0376	-631.89471	719.55579	-123.72147	-664.89801	269.14499	-162.02113	-758.09106	273.55557	-104.22913
335	1.665	-523.93536	124.11362	-557.68994	-569.21143	134.95155	-523.73499	-365.32819	526.37665	-396.6604	-468.30484	505.32538	-361.5004	-367.50528	985.25659	-541.59589	-703.74152	1046.812	-430.2186	-527.43726	679.63086	-144.19456	-638.16925	708.729	-132.174	-672.1684	257.95163	-176.61201	-765.0802	261.07401	-121.6868
336	1.67	-523.97284	122.32716	-558.27747	-569.69366	133.20502	-524.83081	-366.41895	524.16919	-395.08774	-469.99384	503.22397	-361.22675	-367.48004	982.91504	-540.31616	-705.28711	1043.1466	-432.08966	-533.85303	668.13049	-152.99014	-644.18158	698.18097	-140.88478	-678.65167	247.35417	-191.27127	-771.76038	251.07152	-134.77733
337	1.675	-524.04218	120.74134	-558.7702	-569.85583	131.51932	-525.57446	-367.74808	522.13013	-393.46927	-472.33548	500.98782	-360.95151	-367.29507	980.77765	-539.22333	-706.43646	1039.8676	-434.2196	-539.97736	656.89197	-162.24496	-649.93164	687.69342	-149.77853	-684.1615	237.04936	-206.76019	-777.98615	240.71539	-149.09967
338	1.68	-524.41455	119.11052	-559.20337	-570.46826	129.96954	-526.38708	-369.22995	520.15161	-391.93051	-474.16647	499.30515	-361.09869	-367.63004	978.80292	-537.74396	-707.99084	1036.2609	-436.32181	-546.19415	646.06464	-171.99062	-655.49475	677.30743	-158.87544	-691.67651	226.9073	-220.24419	-784.45105	230.02248	-163.09573
